<svg xmlns="http://www.w3.org/2000/svg" width="39.032" height="36.642" viewBox="0 0 39.032 36.642">
  <path id="Google" d="M-343.555-1024.734c-2.188-.021-4.639-.174-6.447-1.547-1.59-1.21-1.9-3.117-2.056-5-.427-5.152-.4-10.382-.6-15.552-.149-3.906-1.57-10.51,2.764-12.751,2.142-1.107,4.854-.94,7.195-1.039q4.456-.193,8.915-.292c3.074-.068,6.152-.113,9.226-.092,2.4.017,5.113.035,7.33,1.077A5.355,5.355,0,0,1-314.2-1055c.206,3.045.11,6.137.124,9.186q.022,4.487-.011,8.977c-.018,2.643.437,5.909-.334,8.46-1.029,3.4-5.394,3.433-8.322,3.619-3.7.238-7.463.385-11.22.385C-337.174-1024.373-340.387-1024.481-343.555-1024.734Zm19.5-2.084c1.292-.064,2.587-.131,3.868-.292,1.953-.242,3.721-.619,3.884-2.943.353-4.977.121-10.079.1-15.067-.011-2.765-.032-5.526-.082-8.286-.021-1.175.111-2.584-.58-3.6a4.189,4.189,0,0,0-2.569-1.419c-2.626-.644-5.494-.452-8.173-.435q-3.432.027-6.863.1-4.113.09-8.229.27c-2,.086-4.568-.184-6.351.865-2.21,1.306-1.7,4.611-1.622,6.756q.112,3.155.235,6.3.229,5.983.445,11.969c.049,1.4-.018,3.359,1.042,4.433,1.292,1.309,3.7,1.281,5.394,1.3a1.208,1.208,0,0,1,.193.015A153.171,153.171,0,0,0-324.055-1026.818Zm-14.1-6.124c-2.181-.352-4.523-1.633-3.3-4.208,1.185-2.493,3.66-3.093,6.115-2.986a10.031,10.031,0,0,1-1.634-1.955,5.853,5.853,0,0,1-4.15-2c-1.822-2.2-1.847-5.077.445-6.906a7.562,7.562,0,0,1,3.772-1.541,4.547,4.547,0,0,1,3.442.984,1.449,1.449,0,0,0,.194-.134,5.79,5.79,0,0,0,.654-.715,1.074,1.074,0,0,1,1.508,0,1.1,1.1,0,0,1,0,1.509,4.811,4.811,0,0,1-1.309,1.194c.419,2.373.556,5.272-1.544,6.776a4.308,4.308,0,0,1-.728.419c1.011,1.325,2.467,2.257,3,4a5.509,5.509,0,0,1-.37,4.347c-.715,1.135-2.18,1.442-3.624,1.442A15.772,15.772,0,0,1-338.151-1032.942Zm-1.377-3.248c-.352,1.2,2.22,1.249,3.067,1.277,1.743.061,2.988.129,2.9-1.967a3.618,3.618,0,0,0-.169-.953,1.242,1.242,0,0,1-.176-.018,12.461,12.461,0,0,0-2.1-.2C-337.507-1038.05-339.09-1037.676-339.528-1036.19Zm3.1-14.263a5.361,5.361,0,0,0-2.594.878c-1.665,1.093-1.679,2.932-.281,4.333,1.281,1.284,4.017,1.544,4.785-.406a7.928,7.928,0,0,0-.074-4.1,2.955,2.955,0,0,0-1.765-.707Zm9.357,6.336q-.091-.914-.153-1.829-1,.027-2,.078c-1.372.071-1.366-2.063,0-2.134q.944-.049,1.89-.076-.047-1.412-.029-2.828a1.068,1.068,0,0,1,2.135,0q-.018,1.4.029,2.792,1.059-.006,2.116.008a1.068,1.068,0,0,1,0,2.135q-1-.012-2.008-.008.063.931.154,1.861a.9.9,0,0,1-.963,1.022A1.134,1.134,0,0,1-327.072-1044.117Z" transform="translate(352.997 1061.015)" fill="#fff"/>
</svg>
