<svg xmlns="http://www.w3.org/2000/svg" width="39.032" height="36.642" viewBox="0 0 39.032 36.642">
  <path id="LinkedIn" d="M-403.556-1024.734c-2.188-.021-4.639-.174-6.447-1.547-1.59-1.21-1.9-3.117-2.057-5-.427-5.152-.4-10.382-.6-15.552-.149-3.906-1.569-10.51,2.765-12.751,2.142-1.107,4.853-.94,7.194-1.039q4.456-.193,8.916-.292c3.074-.068,6.152-.113,9.225-.092,2.4.017,5.113.035,7.33,1.077A5.355,5.355,0,0,1-374.2-1055c.206,3.045.111,6.137.124,9.186q.022,4.487-.01,8.977c-.018,2.643.437,5.909-.335,8.46-1.028,3.4-5.394,3.433-8.322,3.619-3.7.238-7.463.385-11.22.385C-397.174-1024.373-400.387-1024.481-403.556-1024.734Zm19.5-2.084c1.292-.064,2.587-.131,3.867-.292,1.953-.242,3.721-.619,3.885-2.943.352-4.977.121-10.079.1-15.067-.01-2.765-.032-5.526-.081-8.286-.022-1.175.11-2.584-.58-3.6a4.185,4.185,0,0,0-2.569-1.419c-2.625-.644-5.494-.452-8.172-.435q-3.432.027-6.863.1-4.115.09-8.23.27c-2,.086-4.568-.184-6.35.865-2.21,1.306-1.7,4.611-1.623,6.756q.112,3.155.235,6.3.229,5.983.445,11.969c.049,1.4-.018,3.359,1.042,4.433,1.292,1.309,3.7,1.281,5.394,1.3a1.208,1.208,0,0,1,.193.015A153.186,153.186,0,0,0-384.054-1026.818Zm-17.658-7.266q.09-5.624.175-11.25a1.068,1.068,0,0,1,2.135,0q-.09,5.626-.175,11.25a1.028,1.028,0,0,1-1.084,1.03A.991.991,0,0,1-401.712-1034.084Zm14.345-.355a38.625,38.625,0,0,0-.348-7.006c-.331-1.508-1.22-3-2.953-2.387a3.992,3.992,0,0,0-2.459,2.237,1.206,1.206,0,0,1-.114.226q.145,3.422.427,6.84c.114,1.37-2.021,1.359-2.135,0q-.443-5.347-.548-10.716a1.068,1.068,0,0,1,2.135,0q.006.279.012.558c1.629-1.437,3.908-2.218,5.691-.867,3.082,2.334,2.327,7.763,2.426,11.115a.974.974,0,0,1-1.036,1.03A1.046,1.046,0,0,1-387.367-1034.439Zm-14.057-15.181v-1.783a1.083,1.083,0,0,1,1.067-1.067,1.08,1.08,0,0,1,1.067,1.067v1.783a1.085,1.085,0,0,1-1.067,1.067h-.038A1.085,1.085,0,0,1-401.424-1049.62Z" transform="translate(412.997 1061.015)" fill="#fff"/>
</svg>
