<svg xmlns="http://www.w3.org/2000/svg" width="39.032" height="36.642" viewBox="0 0 39.032 36.642">
  <path id="Pinterest" d="M-223.556-1024.734c-2.188-.021-4.639-.174-6.447-1.547-1.59-1.21-1.9-3.117-2.056-5-.427-5.152-.4-10.382-.6-15.552-.149-3.906-1.569-10.51,2.765-12.751,2.142-1.107,4.853-.94,7.194-1.039q4.456-.193,8.916-.292c3.074-.068,6.152-.113,9.225-.092,2.4.017,5.113.035,7.33,1.077A5.355,5.355,0,0,1-194.2-1055c.206,3.045.111,6.137.124,9.186q.022,4.487-.01,8.977c-.018,2.643.437,5.909-.335,8.46-1.028,3.4-5.394,3.433-8.322,3.619-3.7.238-7.463.385-11.22.385C-217.174-1024.373-220.387-1024.481-223.556-1024.734Zm19.5-2.084c1.292-.064,2.587-.131,3.867-.292,1.953-.242,3.722-.619,3.885-2.943.352-4.977.121-10.079.1-15.067-.01-2.765-.032-5.526-.081-8.286-.022-1.175.11-2.584-.581-3.6a4.185,4.185,0,0,0-2.569-1.419c-2.625-.644-5.494-.452-8.172-.435q-3.432.027-6.863.1-4.115.09-8.23.27c-2,.086-4.568-.184-6.35.865-2.21,1.306-1.7,4.611-1.623,6.756q.112,3.155.235,6.3.229,5.983.445,11.969c.049,1.4-.018,3.359,1.042,4.433,1.292,1.309,3.7,1.281,5.394,1.3a1.208,1.208,0,0,1,.193.015A153.186,153.186,0,0,0-204.054-1026.818Zm-16-8.525c3.309-2.687,4.255-7.044,4.8-11.075.182-1.345,2.317-1.36,2.135,0a37.705,37.705,0,0,1-1.059,5.413c1.8.363,4.03.593,5.407-.607,1.669-1.452,1.078-4.066-.149-5.525a8.18,8.18,0,0,0-5.27-2.636,5.1,5.1,0,0,0-3.4.6c-.922.6-2.7,3.764-.519,3.483,1.359-.175,1.341,1.96,0,2.135a2.9,2.9,0,0,1-3.188-2.551,5.119,5.119,0,0,1,1.992-4.444c2.861-2.384,7.437-1.49,10.272.488s4.359,5.425,2.687,8.667c-1.611,3.118-5.469,3.009-8.534,2.418a12.574,12.574,0,0,1-3.667,5.145,1.093,1.093,0,0,1-.7.258C-220.124-1033.577-220.894-1034.657-220.051-1035.343Z" transform="translate(232.997 1061.015)" fill="#fff"/>
</svg>
