<svg xmlns="http://www.w3.org/2000/svg" width="39.032" height="36.642" viewBox="0 0 39.032 36.642">
  <path id="Twitter" d="M-163.555-1024.734c-2.188-.021-4.639-.174-6.447-1.547-1.59-1.21-1.9-3.117-2.057-5-.427-5.152-.4-10.382-.6-15.552-.149-3.906-1.57-10.51,2.764-12.751,2.142-1.107,4.854-.94,7.195-1.039q4.456-.193,8.915-.292c3.074-.068,6.152-.113,9.226-.092,2.4.017,5.113.035,7.33,1.077A5.355,5.355,0,0,1-134.2-1055c.206,3.045.11,6.137.124,9.186q.022,4.487-.011,8.977c-.018,2.643.438,5.909-.334,8.46-1.029,3.4-5.394,3.433-8.322,3.619-3.7.238-7.463.385-11.22.385C-157.174-1024.373-160.387-1024.481-163.555-1024.734Zm19.5-2.084c1.292-.064,2.587-.131,3.868-.292,1.953-.242,3.721-.619,3.884-2.943.353-4.977.122-10.079.1-15.067-.011-2.765-.031-5.526-.082-8.286-.021-1.175.111-2.584-.58-3.6a4.19,4.19,0,0,0-2.569-1.419c-2.626-.644-5.494-.452-8.173-.435q-3.432.027-6.863.1-4.113.09-8.229.27c-2,.086-4.568-.184-6.351.865-2.21,1.306-1.7,4.611-1.622,6.756q.112,3.155.235,6.3.229,5.983.445,11.969c.049,1.4-.018,3.359,1.042,4.433,1.291,1.309,3.7,1.281,5.394,1.3a1.208,1.208,0,0,1,.193.015A153.171,153.171,0,0,0-144.055-1026.818Zm-21.29-9.614a1.084,1.084,0,0,1,.256-1.949c1.783-.658,3.173-1.743,4.849-2.541l.47-.327c.374.124.417.1.125-.061a6.426,6.426,0,0,0-.752-.587,6.1,6.1,0,0,1-1.1-1.416c-1.43-2.523-1.1-5.657-.537-8.375a1.074,1.074,0,0,1,1.569-.637c2.388,1.709,4.453,4.286,7.215,5.4.676-3.082,4.46-4.509,7.359-2.952a4.756,4.756,0,0,1,2.421,2.918c.267-.144.532-.292.787-.456a1.079,1.079,0,0,1,1.459.384,1.089,1.089,0,0,1-.384,1.458c-.184.118-.373.228-.564.333l.564.361c1.156.737.082,2.583-1.078,1.843l-.684-.437a15.421,15.421,0,0,1-1.113,3.535c-2.1,4.744-6.44,6.825-11,6.825A16.709,16.709,0,0,1-165.344-1036.432Zm16.728-1.1a11.511,11.511,0,0,0,3.263-7.269,3.053,3.053,0,0,0-2.335-3.508,2.669,2.669,0,0,0-3.5,2.8.891.891,0,0,1-.845,1.017,1.106,1.106,0,0,1-.517.008c-3.144-.666-5.321-3.026-7.708-5.009a9.788,9.788,0,0,0,.141,3.923,4.617,4.617,0,0,0,1.747,2.541,2.762,2.762,0,0,1,1.06,1.128c.583,1.519-1.273,2.444-2.288,3.12a21.275,21.275,0,0,1-2.916,1.628C-158.261-1034.767-152.4-1034.009-148.616-1037.527Z" transform="translate(172.997 1061.015)" fill="#fff"/>
</svg>
