<svg xmlns="http://www.w3.org/2000/svg" width="39.032" height="36.642" viewBox="0 0 39.032 36.642">
  <path id="facebook" d="M-103.555-1024.733c-2.189-.022-4.64-.175-6.448-1.548-1.59-1.21-1.9-3.117-2.056-5-.427-5.151-.4-10.382-.6-15.552-.149-3.906-1.569-10.509,2.765-12.751,2.142-1.106,4.853-.94,7.194-1.039,2.971-.129,5.945-.22,8.916-.292,3.074-.068,6.151-.114,9.226-.093,2.4.017,5.113.035,7.329,1.077A5.359,5.359,0,0,1-74.2-1055c.206,3.046.11,6.137.124,9.186q.022,4.487-.011,8.977c-.018,2.643.437,5.909-.335,8.461-1.028,3.4-5.394,3.432-8.321,3.618-3.7.238-7.467.385-11.226.385C-97.178-1024.373-100.388-1024.481-103.555-1024.733Zm19.5-2.085c1.292-.064,2.587-.131,3.867-.292,1.954-.242,3.721-.619,3.885-2.942.353-4.978.121-10.08.1-15.068-.011-2.765-.032-5.526-.082-8.286-.022-1.175.111-2.583-.58-3.6a4.189,4.189,0,0,0-2.57-1.419c-2.625-.644-5.493-.452-8.172-.435q-3.432.027-6.863.1-4.115.09-8.23.271c-2,.085-4.567-.185-6.35.864-2.21,1.306-1.7,4.612-1.623,6.756q.112,3.155.235,6.3.229,5.982.445,11.968c.05,1.406-.017,3.359,1.043,4.433,1.291,1.309,3.7,1.281,5.394,1.3a1.2,1.2,0,0,1,.193.015A153.291,153.291,0,0,0-84.055-1026.818Zm-12.595-4.878a1,1,0,0,1-.924-.6,1.124,1.124,0,0,1-.143-.47,59.292,59.292,0,0,1-.207-6.348c-.748-.018-1.5-.027-2.245-.053a1.07,1.07,0,0,1-1.028-.782,21.947,21.947,0,0,1-.235-2.694c-.011-.725-.082-1.6.558-2.092a4.857,4.857,0,0,1,2.2-.455c.346-.046.687-.076,1.029-.09-.025-2.253-.322-4.9,1.092-6.681,1.426-1.8,4-2.138,6.126-1.694,2.067.43,4.295,1.843,4.818,4.013.452,1.885-.738,3.885-2.665,3.768a.838.838,0,0,1-.711-.145.9.9,0,0,1-.5-.513c-.161-.245-.264-.5-.462-.8a.833.833,0,0,0-1.171-.267c-.352.292-.188,1.217-.16,1.587.017.216.037.43.054.645.792-.042,1.586-.057,2.38-.089a.921.921,0,0,1,.931.547,1.069,1.069,0,0,1,.136.52c.029,1.466.014,2.929.131,4.39a.884.884,0,0,1-.346.83.94.94,0,0,1-.721.238c-.644-.036-1.288-.03-1.932-.023-.262,0-.524.005-.787,0q-.007,3.058.232,6.106a.881.881,0,0,1-.685.986,1.136,1.136,0,0,1-.382.081c-1.106.048-2.214.093-3.323.093Q-96.119-1031.681-96.649-1031.7Zm3.243-2.166q-.191-2.951-.153-5.908a.989.989,0,0,1,.984-1.34c.644.035,1.288.029,1.931.022.267,0,.533-.005.8,0-.031-.73-.041-1.46-.05-2.191-.727.024-1.454.049-2.179.109a1.047,1.047,0,0,1-.419-.044.938.938,0,0,1-.83-1.013c.067-1.718-.743-4.319,1.253-5.262a3.158,3.158,0,0,1,2.632-.146,3.21,3.21,0,0,1,1.106.918,3.426,3.426,0,0,1,.334.495,1.1,1.1,0,0,0,.1-1.459,2.384,2.384,0,0,0-.7-.772,4.877,4.877,0,0,0-1.643-.929,5.218,5.218,0,0,0-3.637.032c-2.419,1.113-1.529,4.991-1.654,7.155a1.147,1.147,0,0,1-.082.373.9.9,0,0,1-.989.7,11.832,11.832,0,0,0-2.7.126c0,.02,0,.039,0,.058,0,.249,0,.5.014.754q.017.459.058.917c.724.017,1.447.026,2.172.05a1.254,1.254,0,0,1,.154.015.98.98,0,0,1,1.145,1.025,60.756,60.756,0,0,0,.095,6.365C-94.91-1033.815-94.158-1033.834-93.407-1033.862Zm-5.733-6.654Z" transform="translate(112.997 1061.015)" fill="#fff"/>
</svg>
