<svg xmlns="http://www.w3.org/2000/svg" width="39.032" height="36.642" viewBox="0 0 39.032 36.642">
  <path id="Instagram" d="M-283.555-1024.734c-2.189-.021-4.639-.174-6.448-1.547-1.59-1.21-1.9-3.117-2.056-5-.427-5.152-.4-10.382-.6-15.552-.149-3.906-1.569-10.51,2.765-12.751,2.142-1.107,4.853-.94,7.194-1.039q4.456-.193,8.916-.292c3.074-.068,6.151-.113,9.226-.092,2.4.017,5.112.035,7.329,1.077A5.355,5.355,0,0,1-254.2-1055c.207,3.045.111,6.137.125,9.186q.022,4.487-.011,8.977c-.018,2.643.437,5.909-.335,8.46-1.028,3.4-5.394,3.433-8.321,3.619-3.7.238-7.463.385-11.22.385C-277.174-1024.373-280.387-1024.481-283.555-1024.734Zm19.5-2.084c1.292-.064,2.587-.131,3.867-.292,1.954-.242,3.721-.619,3.885-2.943.352-4.977.121-10.079.1-15.067-.011-2.765-.032-5.526-.082-8.286-.022-1.175.11-2.584-.58-3.6a4.189,4.189,0,0,0-2.569-1.419c-2.625-.644-5.493-.452-8.172-.435q-3.432.027-6.863.1-4.115.09-8.23.27c-2,.086-4.568-.184-6.35.865-2.21,1.306-1.7,4.611-1.623,6.756q.112,3.155.235,6.3.23,5.983.445,11.969c.05,1.4-.017,3.359,1.043,4.433,1.292,1.309,3.7,1.281,5.394,1.3a1.208,1.208,0,0,1,.193.015A153.171,153.171,0,0,0-264.055-1026.818Zm-5.568-4.343c-.5-.013-.99-.028-1.437-.023-4.938.046-11.624.124-13.648-5.412-1.085-2.967-.967-6.5-.9-9.606.053-2.579.2-5.4,2.757-6.749,2.434-1.285,5.7-1.054,8.368-1.2,3.013-.159,6.019-.174,9.035-.118h.076c.036,0,.071,0,.106.006,2.381.167,3.447,1.954,3.759,4.189a51.287,51.287,0,0,1-.058,10.083c-.149,2.427.175,5.964-1.949,7.682a7.516,7.516,0,0,1-4.744,1.169C-268.72-1031.136-269.179-1031.148-269.623-1031.161Zm-4.341-20.876c-1.327.065-2.654.147-3.981.235-1.477.1-3.476.068-4.59,1.228-1.17,1.217-.929,3.477-.946,5.027-.018,1.526.021,3.056.131,4.579.238,3.284,1.146,6.155,4.658,7.069a30.655,30.655,0,0,0,8.055.576c1.237-.021,2.49-.014,3.729-.092,2.223-.143,2.807-1.313,3-3.373.292-3.113.448-6.28.455-9.407,0-1.578.427-5.753-1.864-5.931h-.046q-1.634-.033-3.266-.035C-270.409-1052.16-272.186-1052.125-273.964-1052.037Zm-4.963,10.93a5.5,5.5,0,0,1,4.632-6.871c2.975-.523,6.308.9,6.827,4.12q.005.034.009.068a1.206,1.206,0,0,1,.03.22c.147,3.259-1.6,6.337-5.037,6.81a5.978,5.978,0,0,1-.815.056A5.775,5.775,0,0,1-278.926-1041.107Zm2.146-.246a3.662,3.662,0,0,0,4.3,2.441c2.207-.463,2.989-2.517,2.925-4.56a3.2,3.2,0,0,0-3.361-2.491C-275.228-1045.962-277.69-1044.213-276.781-1041.352Zm8.14-7.055a1.324,1.324,0,0,1,.058-1.494,1.318,1.318,0,0,1,1.075-.52,1.436,1.436,0,0,1,1.263.826,1.417,1.417,0,0,1,.274.531,1.247,1.247,0,0,1-.836,1.48,1.161,1.161,0,0,1-.377.061A1.825,1.825,0,0,1-268.641-1048.407Z" transform="translate(292.997 1061.015)" fill="#fff"/>
</svg>
